{
    "asset" : {
        "generator" : "Khronos glTF Blender I/O v1.4.40",
        "version" : "2.0"
    },
    "scene" : 0,
    "scenes" : [
        {
            "name" : "Scene",
            "nodes" : [
                0
            ]
        }
    ],
    "nodes" : [
        {
            "mesh" : 0,
            "name" : "Retopo Final"
        }
    ],
    "meshes" : [
        {
            "name" : "Plane.009",
            "primitives" : [
                {
                    "attributes" : {
                        "POSITION" : 0,
                        "NORMAL" : 1,
                        "TEXCOORD_0" : 2
                    },
                    "indices" : 3
                }
            ]
        }
    ],
    "accessors" : [
        {
            "bufferView" : 0,
            "componentType" : 5126,
            "count" : 2111,
            "max" : [
                11.858753204345703,
                10.031707763671875,
                26.53447914123535
            ],
            "min" : [
                -11.858830451965332,
                -4.050023555755615,
                -10.56661319732666
            ],
            "type" : "VEC3"
        },
        {
            "bufferView" : 1,
            "componentType" : 5126,
            "count" : 2111,
            "type" : "VEC3"
        },
        {
            "bufferView" : 2,
            "componentType" : 5126,
            "count" : 2111,
            "type" : "VEC2"
        },
        {
            "bufferView" : 3,
            "componentType" : 5123,
            "count" : 9954,
            "type" : "SCALAR"
        }
    ],
    "bufferViews" : [
        {
            "buffer" : 0,
            "byteLength" : 25332,
            "byteOffset" : 0
        },
        {
            "buffer" : 0,
            "byteLength" : 25332,
            "byteOffset" : 25332
        },
        {
            "buffer" : 0,
            "byteLength" : 16888,
            "byteOffset" : 50664
        },
        {
            "buffer" : 0,
            "byteLength" : 19908,
            "byteOffset" : 67552
        }
    ],
    "buffers" : [
        {
            "byteLength" : 87460,
            "uri" : "data:application/octet-stream;base64,"
        }
    ]
}
